<?xml version="1.0" standalone="no"?>
<!DOCTYPE svg PUBLIC "-//W3C//DTD SVG 20010904//EN"
 "http://www.w3.org/TR/2001/REC-SVG-20010904/DTD/svg10.dtd">
<svg version="1.0" xmlns="http://www.w3.org/2000/svg"
 width="300.000000pt" height="300.000000pt" viewBox="0 0 300.000000 300.000000"
 preserveAspectRatio="xMidYMid meet">
<metadata>
Created by potrace 1.11, written by Peter Selinger 2001-2013
</metadata>
<g transform="translate(0.000000,300.000000) scale(0.100000,-0.100000)"
fill="#000000" stroke="none">
<path d="M1280 2983 c-170 -25 -392 -100 -515 -176 -137 -84 -174 -111 -259
-187 -249 -222 -433 -547 -481 -851 -3 -19 -9 -59 -14 -89 -16 -92 -6 -352 17
-466 126 -626 619 -1096 1257 -1199 67 -11 326 -13 395 -4 108 15 122 17 203
38 484 126 884 504 1041 984 54 164 71 278 70 467 0 273 -44 453 -166 691
-220 429 -640 727 -1117 793 -123 17 -310 17 -431 -1z m420 -408 c319 -56 625
-285 774 -579 51 -100 67 -145 93 -260 24 -109 34 -279 20 -366 -14 -88 -19
-113 -36 -172 -36 -123 -99 -252 -174 -353 -47 -63 -189 -199 -253 -242 -96
-65 -210 -120 -304 -148 -324 -97 -683 -38 -956 157 -181 130 -325 324 -397
538 -48 141 -55 194 -53 365 2 136 7 175 29 258 138 514 615 857 1137 815 47
-4 101 -9 120 -13z"/>
<path d="M1434 2545 c-111 -26 -188 -84 -235 -181 -29 -58 -33 -76 -33 -147 0
-111 26 -166 131 -276 l80 -84 -118 -118 -118 -118 -53 52 c-97 95 -140 127
-203 146 -160 50 -328 -20 -399 -165 -110 -224 37 -478 282 -488 115 -5 188
30 310 151 l63 62 114 -114 c63 -63 115 -118 115 -122 0 -5 -34 -44 -75 -88
-94 -100 -125 -160 -130 -252 -4 -77 13 -141 58 -211 66 -102 223 -164 351
-137 39 8 114 48 153 80 67 57 116 180 107 272 -10 102 -42 161 -145 265 l-69
70 118 118 117 118 85 -80 c113 -105 169 -132 275 -132 137 1 240 65 301 189
26 53 29 71 29 150 0 95 -13 135 -72 213 -67 90 -223 139 -341 108 -73 -20
-103 -39 -193 -124 l-83 -80 -113 113 c-62 62 -113 118 -113 123 0 5 34 45 75
88 44 45 87 102 101 132 59 125 22 300 -81 391 -73 64 -199 97 -291 76z m166
-195 c43 -31 74 -102 66 -153 -9 -54 -32 -89 -103 -160 l-59 -57 -61 57 c-111
105 -131 157 -97 241 39 100 165 135 254 72z m20 -735 l115 -115 -115 -115
c-63 -63 -117 -115 -121 -115 -11 0 -224 219 -224 230 0 11 214 230 225 230 3
0 57 -52 120 -115z m-787 44 c26 -7 63 -34 114 -84 l75 -73 -73 -73 c-101 -99
-148 -116 -227 -84 -53 23 -80 53 -96 106 -26 85 5 156 84 197 50 25 68 27
123 11z m1454 -8 c26 -12 52 -35 69 -60 23 -35 26 -48 22 -99 -5 -67 -32 -113
-81 -139 -84 -43 -152 -23 -250 76 l-69 68 71 72 c100 102 153 120 238 82z
m-694 -726 c74 -75 90 -128 62 -202 -51 -134 -246 -140 -306 -9 -37 82 -19
137 78 237 l67 69 25 -22 c14 -13 47 -45 74 -73z"/>
</g>
</svg>
