<svg version="1" xmlns="http://www.w3.org/2000/svg" width="400" height="400" viewBox="0 0 300.000000 300.000000"><path d="M129.7 1C85.3 8 47.9 31.9 24 68.5 14.1 83.8 6.7 101.9 2.4 122c-2.8 12.8-2.6 44.8.4 58.3 13.4 60.4 59 105.1 119.9 117.4 13.4 2.7 44.3 2.5 57.5-.5 54.1-12 96.2-49.9 112.6-101.2 5.7-18.1 6.7-24.7 6.7-46-.1-21.6-1.1-28.3-7.1-47-16.2-50.4-58.5-88.4-111.7-100.1-10.5-2.3-41-3.4-51-1.9zm45.8 43c10.8 2.8 17.6 5.4 26.3 10.1 26.6 14.2 45.5 38.3 53.9 68.5 2.6 9.1 2.8 11.3 2.7 27.4 0 15.8-.3 18.5-2.7 27.5-16.7 61.9-81.5 96.3-141.8 75.2-57.4-19.9-87.3-84.2-65.9-141.5C61.4 75.4 95.2 48.1 133.5 42c9.9-1.5 32.8-.5 42 2z"/><path d="M142 45.9c-5.6 1.7-12.8 6.2-16.3 10-5.9 6.6-8 11.6-8.5 20.6-.6 12 1.8 17.5 12.6 28.7l8.6 8.9-12.2 12.1-12.1 12.2-8.3-8c-11.4-10.9-15.6-12.9-27.8-12.9-8 0-10.2.4-13.8 2.3-6.7 3.5-12.9 9.8-15.9 16.1-2.4 4.8-2.8 6.8-2.8 14.1.1 7.2.5 9.4 2.8 14.2 7.5 15.5 26 22.8 42.3 16.7 4.4-1.7 7.8-4.1 14.6-10.7l8.9-8.6 12.1 12.2 12.2 12.1-8.1 8.5c-11.5 11.9-12.8 14.7-12.8 27.1 0 8.5.3 10.6 2.3 14.3 3.7 7 9.6 12.7 16.5 15.8 5.2 2.4 7.5 2.9 14.2 2.9 7.2-.1 8.7-.4 14.3-3.5 12.5-6.7 18.7-17.4 18-31-.6-10.5-3.2-15.6-13-25.7l-8.2-8.4 12.1-12.1 12.2-12.2 8.9 8.6c6.8 6.6 10.2 9 14.6 10.7 16.6 6.2 34.9-1.2 42.2-17.1 2.4-5.3 2.8-7.6 2.8-14.3 0-7-.4-8.8-3.1-14.1-6-11.6-17-18.4-29.8-18.4-10.5 0-16.3 2.8-26.7 12.8l-8.9 8.6-12.1-12.1-12.2-12.2 8.1-8.5C179.8 95 182.4 90 182.8 80c.8-16-8.4-28.8-23.8-33.4-5.6-1.7-12.8-2-17-.7zm14.5 17c6.9 3.2 10.5 8.6 10.5 15.7 0 5.5-2.3 9.4-9.9 16.9l-7.1 6.9-7.1-6.9c-8.4-8.4-9.9-10.9-9.9-17.2 0-7.4 4.1-13.1 11.5-16 4.3-1.7 7.4-1.5 12 .6zm6 75.1l12 12-12.3 12.3-12.2 12.2-12.2-12.2-12.3-12.3 12-12c6.6-6.6 12.2-12 12.5-12 .3 0 5.9 5.4 12.5 12zm-77.2-3.6c1.8.8 6.3 4.6 10.2 8.5l6.9 7.1-5.4 5.6c-8.9 9.1-12.5 11.4-18.2 11.4-5.8 0-9.4-1.7-13.5-6.4-3.6-4.1-4.9-9.8-3.4-15.2 2.8-10 13.8-15.2 23.4-11zm143.5 0c7.3 3.8 11.4 12.5 9.3 19.6-2.4 8-8.9 13-17.1 13-5.6 0-8.3-1.7-16.5-9.9l-6.9-7.1 5.4-5.6c8.9-9.1 12.5-11.4 18.2-11.4 2.7 0 6.1.6 7.6 1.4zm-71 71c7.7 7.9 9.2 10.6 9.2 16.7 0 10.6-11 18.9-21.2 16-5.1-1.5-7.9-3.6-10.7-8.2-2.3-3.8-2.8-11.6-1-15.2 1.2-2.3 14.9-16.7 16-16.7.3 0 3.8 3.3 7.7 7.4z"/></svg>