<?xml version="1.0" encoding="utf-8"?>
<!-- Generator: Adobe Illustrator 16.0.0, SVG Export Plug-In . SVG Version: 6.00 Build 0)  -->
<!DOCTYPE svg PUBLIC "-//W3C//DTD SVG 1.1//EN" "http://www.w3.org/Graphics/SVG/1.1/DTD/svg11.dtd">
<svg version="1.1" id="Layer_1" xmlns="http://www.w3.org/2000/svg" xmlns:xlink="http://www.w3.org/1999/xlink" x="0px" y="0px"
	 width="960px" height="560px" viewBox="0 0 960 560" enable-background="new 0 0 960 560" xml:space="preserve">
<path fill-rule="evenodd" clip-rule="evenodd" fill="#FC5C63" d="M419.906,157.899c-34.741-0.034-63.043,28.153-63.133,62.879
	c-0.089,35.046,28.174,63.405,63.16,63.376c34.862-0.026,63.112-28.219,63.179-63.053
	C483.178,186.252,454.86,157.936,419.906,157.899z M449.614,223.621c-9.028,9.064-18.075,18.111-27.138,27.141
	c-1.668,1.663-3.453,1.667-5.129-0.002c-9.068-9.028-18.114-18.075-27.129-27.155c-0.654-0.656-0.987-1.64-1.551-2.604
	c0.562-0.961,0.881-1.883,1.499-2.509c9.056-9.121,18.142-18.212,27.252-27.276c1.585-1.58,3.403-1.563,5.006,0.028
	c9.108,9.068,18.196,18.159,27.263,27.268C451.369,220.203,451.334,221.896,449.614,223.621z"/>
<text transform="matrix(1 0 0 1 522.8027 206.7939)"><tspan x="0" y="0" fill="#FC5C63" font-family="'TsukuARdGothic-Regular-83pv-RKSJ-H'" font-size="74.4712">財</tspan><tspan x="0" y="89.365" fill="#FC5C63" font-family="'TsukuARdGothic-Regular-83pv-RKSJ-H'" font-size="74.4712">神</tspan></text>
<g>
	<path fill-rule="evenodd" clip-rule="evenodd" fill="#FED1C5" d="M333.255,220.993c0.046-47.868,38.983-86.696,86.833-86.592
		c47.918,0.103,86.529,38.94,86.422,86.928c-0.102,47.579-38.878,86.364-86.314,86.335
		C372.08,307.638,333.207,268.881,333.255,220.993z M419.906,157.9c-34.741-0.035-63.043,28.153-63.133,62.878
		c-0.088,35.046,28.174,63.405,63.16,63.376c34.862-0.026,63.112-28.219,63.179-63.053
		C483.178,186.252,454.86,157.936,419.906,157.9z"/>
	<path fill-rule="evenodd" clip-rule="evenodd" fill="#FED1C5" d="M388.668,221.001c0.562-0.961,0.881-1.883,1.499-2.509
		c9.056-9.121,18.142-18.212,27.252-27.277c1.585-1.579,3.403-1.562,5.006,0.03c9.108,9.067,18.196,18.158,27.263,27.267
		c1.682,1.691,1.646,3.384-0.073,5.109c-9.028,9.064-18.075,18.111-27.138,27.141c-1.668,1.663-3.453,1.667-5.129-0.002
		c-9.068-9.028-18.114-18.075-27.129-27.155C389.564,222.949,389.231,221.965,388.668,221.001z M419.877,229.358
		c0.385-0.244,0.768-0.4,1.043-0.672c2.225-2.188,4.412-4.416,6.643-6.6c0.852-0.834,0.648-1.485-0.115-2.228
		c-2.146-2.103-4.277-4.22-6.378-6.368c-0.771-0.784-1.425-0.899-2.236-0.073c-2.149,2.184-4.313,4.352-6.507,6.491
		c-0.803,0.786-0.82,1.437-0.006,2.229c2.189,2.143,4.337,4.329,6.513,6.482C419.115,228.898,419.483,229.084,419.877,229.358z"/>
</g>
<g>
	
		<text transform="matrix(0.7188 -0.6952 0.6952 0.7188 386.5376 206.2559)" fill="#FFFFFF" font-family="'PingFangHK-Light-83pv-RKSJ-H'" font-size="24.8237">智</text>
	
		<text transform="matrix(0.7071 0.7071 -0.7071 0.7071 438.749 189.8228)" fill="#FFFFFF" font-family="'PingFangHK-Light-83pv-RKSJ-H'" font-size="24.8237">能</text>
	
		<text transform="matrix(-0.7071 0.7071 -0.7071 -0.7071 450.9258 238.1626)" fill="#FFFFFF" font-family="'PingFangHK-Light-83pv-RKSJ-H'" font-size="24.8237">红</text>
	
		<text transform="matrix(-0.7071 -0.7071 0.7071 -0.7071 405.4468 255.6631)" fill="#FFFFFF" font-family="'PingFangHK-Light-83pv-RKSJ-H'" font-size="24.8237">包</text>
</g>
<text transform="matrix(1 0 0 1 472.5947 375)"><tspan x="0" y="0" fill="#FC5C63" font-family="'VAGRounded-Light'" font-size="34.2295">CaiShen</tspan><tspan x="-132.57" y="41.075" fill="#FC5C63" font-family="'VAGRounded-Light'" font-size="34.2295">Smart Red Packet</tspan></text>
</svg>
