<svg version="1" xmlns="http://www.w3.org/2000/svg" width="346.667" height="346.667" viewBox="0 0 260.000000 260.000000"><path d="M115 .7C78.5 6.3 50.7 21.9 27.5 50.1c-11 13.4-23 39.8-25.2 55.9-.3 1.9-.9 5.5-1.3 8-.9 4.8-.6 31.8.4 36 .4 1.4.9 3.8 1.2 5.5 2.6 14.7 9.9 32.2 19.6 47 4.5 6.9 21.1 24.8 27.4 29.6 17.4 13.3 38.6 22.6 59.9 26.2 12.8 2.3 36.5 1.4 49.8-1.7 29-6.8 53.2-22.1 72.2-45.6 12.7-15.7 23.4-38.9 26.1-56.5.3-2.2 1-6 1.4-8.5.9-4.8.6-30.4-.4-35.5-.4-1.7-1.1-5.3-1.6-8-3.2-15.8-12.3-36-21.9-48.9-5-6.7-16.3-19-21.6-23.4-6-5.1-17.9-12.7-25.7-16.5-13.4-6.5-22.6-9.5-38.3-12.3-3.6-.7-31-1.2-34.5-.7zm14.7 34.9c-.3.3-1.2.4-1.9.1-.8-.3-.5-.6.6-.6 1.1-.1 1.7.2 1.3.5zm15 1c-.3.3-1.2.4-1.9.1-.8-.3-.5-.6.6-.6 1.1-.1 1.7.2 1.3.5zM79 50.4c0 .2-.8 1-1.7 1.7-1.6 1.3-1.7 1.2-.4-.4 1.3-1.6 2.1-2.1 2.1-1.3zm-8 5.9c0 .2-1 1.2-2.2 2.3l-2.3 1.9 1.9-2.3c1.8-2.1 2.6-2.7 2.6-1.9zm153.7 68.9c-.3.7-.5.2-.5-1.2s.2-1.9.5-1.3c.2.7.2 1.9 0 2.5zm-189 3c-.3.8-.6.5-.6-.6-.1-1.1.2-1.7.5-1.3.3.3.4 1.2.1 1.9zm189 2c-.3.7-.5.2-.5-1.2s.2-1.9.5-1.3c.2.7.2 1.9 0 2.5zm-189 2c-.3.8-.6.5-.6-.6-.1-1.1.2-1.7.5-1.3.3.3.4 1.2.1 1.9zM77.5 208c.3.6-.1.7-.9.4-1.8-.7-2.1-1.4-.7-1.4.6 0 1.3.4 1.6 1zm7 4.8c-.3.3-1.1 0-1.8-.7-.9-1-.8-1.1.6-.5 1 .3 1.5.9 1.2 1.2zm45.8 11.9c-.7.2-1.9.2-2.5 0-.7-.3-.2-.5 1.2-.5s1.9.2 1.3.5z"/></svg>